<svg width="16" height="16" fill="none" xmlns="http://www.w3.org/2000/svg"><path d="M10.544.888889C9.89552 5.94667 10.0866 7.43644 5.55952 8c4.45078.69067 4.51478 2.2489 4.98448 7.1111.6193-4.8907.4988-6.35554 4.9854-7.1111-4.5214-.55467-4.3699-2.05867-4.9854-7.111111Zm-7.38354.130671C2.81129 3.74844 2.91388 4.55289.470581 4.85689 2.87246 5.23022 2.90729 6.07022 3.16046 8.69422c.33412-2.64.26918-3.43022 2.69083-3.83733-2.44047-.29956-2.35859-1.11111-2.69083-3.83733ZM5.6094 8.68089c-.2447 1.91381-.17317 2.47731-1.88611 2.69071 1.6847.2613 1.70823.8506 1.88611 2.6906.2353-1.8506.18824-2.4053 1.88612-2.6906-1.71012-.2098-1.6527-.7787-1.88612-2.69071Z" fill="#011F3A" stroke="#011F3A" stroke-width=".621" stroke-linecap="square"/></svg>